<svg id="Capa_1" enable-background="new 0 0 512 512" height="512" viewBox="0 0 512 512" width="512" xmlns="http://www.w3.org/2000/svg"><g><path d="m471.207 131.75h-430.414l215.207 372.75zm-251.075 186.375-35.868-62.125v-31.063l35.868-31.063h71.736l35.868 31.063v31.063l-35.868 62.125-35.868 17.125z" fill="#3992e3"/><path d="m291.868 318.125-35.868 62.125h-34.641v-31.062l35.868-31.063z" fill="#405acc"/><path d="m221.359 380.25h-180.566l71.735-124.25 35.868 62.125h108.831z" fill="#4271db"/><path d="m184.264 256-35.868-62.125 17.321-30h35.868v62.125z" fill="#405acc"/><path d="m327.736 131.75h-71.736l-54.415 94.25-35.868-62.125 90.283-156.375z" fill="#4271db"/><path d="m291.868 193.875h71.736l17.32 30v30l-71.736-30z" fill="#405acc"/><path d="m327.736 380.25 35.868-62.125-54.416-94.25h71.736l90.283 156.375z" fill="#4271db"/><path d="m477.703 376.5-69.571-120.5 69.57-120.5c1.34-2.32 1.34-5.18 0-7.5s-3.815-3.75-6.495-3.75h-139.141l-69.571-120.5c-1.34-2.32-3.815-3.75-6.495-3.75s-5.155 1.43-6.495 3.75l-69.571 120.5h-139.142c-2.68 0-5.155 1.43-6.495 3.75s-1.34 5.18 0 7.5l69.571 120.5-69.571 120.5c-1.34 2.32-1.34 5.18 0 7.5s3.815 3.75 6.495 3.75h113.472c4.142 0 7.5-3.358 7.5-7.5s-3.358-7.5-7.5-7.5h-100.481l58.745-101.75 29.373 50.875c1.34 2.32 3.815 3.75 6.495 3.75h130.481l-27.207 47.125h-67.406c-2.68 0-5.155 1.43-6.495 3.75s-1.34 5.18 0 7.5l71.736 124.25c1.34 2.32 3.815 3.75 6.495 3.75s5.155-1.43 6.495-3.75l69.571-120.5h139.142c2.68 0 5.155-1.43 6.495-3.75s1.339-5.18 0-7.5zm-78.231-135.5-29.373-50.875c-1.34-2.32-3.815-3.75-6.495-3.75h-130.482l27.208-47.125h197.887zm-143.472-218.5 58.746 101.75h-58.746c-2.68 0-5.155 1.43-6.495 3.75l-65.241 113-27.208-47.125zm-202.217 116.75h117.491l-29.373 50.875c-1.34 2.32-1.34 5.18 0 7.5l65.24 113h-54.415zm170.679 171.375-31.538-54.625 31.538-54.625h63.076l31.538 54.625-31.538 54.625zm31.538 178.875-58.746-101.75h58.746c2.68 0 5.155-1.43 6.495-3.75l65.241-113 27.208 47.125zm84.726-116.75 29.373-50.875c1.34-2.32 1.34-5.18 0-7.5l-65.241-113h54.415l98.944 171.375z"/></g></svg>